<?xml version="1.0" standalone="no"?>
<!DOCTYPE svg PUBLIC "-//W3C//DTD SVG 20010904//EN"
 "http://www.w3.org/TR/2001/REC-SVG-20010904/DTD/svg10.dtd">
<svg version="1.0" xmlns="http://www.w3.org/2000/svg"
 width="902.000000pt" height="902.000000pt" viewBox="0 0 902.000000 902.000000"
 preserveAspectRatio="xMidYMid meet">
<metadata>
Created by potrace 1.14, written by Peter Selinger 2001-2017
</metadata>
<g transform="translate(0.000000,902.000000) scale(0.100000,-0.100000)"
fill="#000000" stroke="none">
<path d="M4595 8511 c-32 -18 -278 -152 -380 -206 -82 -44 -408 -221 -470
-255 -27 -15 -95 -51 -150 -80 -55 -29 -129 -70 -165 -90 -36 -20 -108 -60
-160 -87 -52 -28 -111 -59 -130 -70 -19 -11 -89 -48 -155 -83 -66 -35 -137
-74 -157 -87 -21 -13 -39 -23 -42 -23 -2 0 -39 -20 -82 -43 -44 -24 -133 -72
-199 -107 -147 -77 -159 -84 -165 -90 -3 -3 -25 -14 -49 -25 -24 -11 -49 -24
-55 -30 -6 -5 -49 -30 -96 -54 -47 -24 -107 -56 -135 -71 -27 -15 -81 -44
-120 -65 -38 -21 -83 -45 -100 -55 -16 -10 -75 -41 -130 -70 -55 -29 -134 -72
-175 -95 -41 -23 -106 -59 -145 -80 -38 -20 -79 -42 -90 -49 -17 -9 -21 -22
-22 -66 -1 -64 -13 -493 -18 -690 -2 -74 -7 -232 -10 -350 -3 -118 -8 -276
-10 -350 -2 -74 -7 -241 -10 -370 -7 -277 -12 -463 -20 -695 -3 -93 -7 -269
-10 -390 -3 -121 -8 -278 -10 -350 -2 -71 -7 -238 -10 -370 l-6 -241 48 -31
c47 -30 242 -151 295 -182 14 -9 93 -57 175 -107 81 -50 198 -121 258 -158 61
-37 122 -76 137 -87 15 -10 49 -31 75 -45 26 -15 73 -44 104 -64 52 -35 503
-313 1179 -728 157 -95 301 -184 320 -197 19 -12 107 -67 195 -120 157 -96
250 -153 303 -187 15 -10 34 -21 42 -25 8 -4 45 -26 82 -50 36 -24 71 -43 76
-43 10 0 246 124 267 139 5 4 57 33 115 63 105 56 136 73 330 178 58 32 146
79 195 105 50 26 104 56 120 65 17 10 71 39 120 65 50 26 113 60 140 75 28 15
86 46 130 70 44 23 94 50 110 60 47 27 141 78 265 143 63 33 120 63 125 67 6
4 46 26 90 50 44 24 99 53 123 66 23 13 86 47 140 75 53 29 102 55 107 59 6 4
55 31 110 60 55 29 193 104 308 167 114 62 209 113 212 113 2 0 30 15 62 34
32 18 96 54 143 78 202 108 194 102 196 145 0 21 5 166 9 323 4 157 9 328 10
380 2 52 6 205 9 340 4 135 9 313 11 395 3 83 7 233 10 335 3 102 8 268 10
370 3 102 7 259 10 350 9 331 16 578 20 735 2 88 7 258 10 377 l6 217 -83 53
c-46 29 -92 58 -103 65 -59 35 -457 280 -500 307 -27 18 -108 68 -180 112
-268 163 -1020 623 -1075 659 -53 34 -314 195 -405 250 -44 26 -99 61 -122 76
-23 16 -44 29 -47 29 -4 0 -158 94 -596 364 -91 57 -169 105 -175 108 -5 3
-23 -2 -40 -11z"/>
</g>
</svg>
