<?xml version="1.0" standalone="no"?>
<!DOCTYPE svg PUBLIC "-//W3C//DTD SVG 20010904//EN"
 "http://www.w3.org/TR/2001/REC-SVG-20010904/DTD/svg10.dtd">
<svg version="1.0" xmlns="http://www.w3.org/2000/svg"
 width="1280.000000pt" height="1117.000000pt" viewBox="0 0 1280.000000 1117.000000"
 preserveAspectRatio="xMidYMid meet">
<metadata>
Created by potrace 1.15, written by Peter Selinger 2001-2017
</metadata>
<g transform="translate(0.000000,1117.000000) scale(0.100000,-0.100000)"
fill="#000000" stroke="none">
<path d="M2533 10869 c-305 -22 -636 -113 -894 -246 -122 -62 -307 -185 -419
-278 -375 -312 -604 -681 -692 -1117 -20 -98 -23 -143 -23 -343 0 -252 9 -323
66 -510 110 -361 378 -678 715 -848 450 -226 1071 -196 1509 73 355 218 555
520 555 840 0 185 -55 317 -189 451 -100 100 -189 156 -316 198 -108 36 -265
59 -299 43 -33 -15 -89 -102 -81 -127 87 -288 90 -448 10 -605 -76 -149 -251
-278 -450 -331 -108 -29 -369 -32 -490 -5 -325 71 -561 295 -646 611 -30 111
-38 380 -15 511 61 353 262 650 581 859 253 166 504 237 840 238 200 1 315
-15 578 -79 145 -36 211 -55 517 -151 353 -110 650 -176 862 -189 289 -18 722
73 1208 253 96 36 201 76 234 90 32 13 60 23 62 21 2 -2 -24 -35 -57 -73 -311
-359 -596 -818 -783 -1264 -216 -512 -364 -1160 -402 -1761 l-7 -105 -88 -92
c-239 -247 -382 -597 -429 -1045 -13 -125 -13 -355 0 -455 45 -339 187 -623
444 -892 55 -58 257 -233 315 -273 27 -19 27 -20 91 -423 76 -482 84 -567 84
-830 -1 -652 -165 -1163 -512 -1603 -83 -105 -274 -290 -387 -374 -256 -191
-581 -323 -915 -373 -262 -39 -583 -39 -830 1 -413 66 -747 262 -869 508 -50
103 -64 174 -59 311 4 102 9 130 33 190 78 194 249 375 535 565 52 35 99 68
103 74 8 11 1 114 -9 140 -7 18 -370 197 -489 241 -143 53 -223 68 -323 61
-374 -28 -678 -287 -773 -661 -19 -74 -23 -116 -23 -240 0 -357 119 -643 378
-913 156 -162 358 -303 580 -407 518 -242 1268 -310 1936 -175 748 151 1390
559 1897 1207 255 326 456 700 588 1096 47 140 118 408 130 490 4 26 11 47 16
47 26 0 195 -300 206 -365 4 -27 13 -39 30 -46 35 -13 61 5 73 52 25 93 161
309 316 504 49 61 178 200 289 311 220 220 354 334 365 312 4 -7 19 -74 33
-148 177 -928 293 -1455 426 -1923 183 -641 340 -978 570 -1219 111 -117 219
-197 355 -263 195 -95 388 -132 626 -121 674 30 1307 357 1941 1002 238 243
431 480 641 789 207 305 468 750 468 801 0 12 -9 42 -19 67 -19 44 -22 46
-126 87 -59 22 -114 40 -123 38 -10 -2 -45 -57 -86 -133 -527 -999 -1189
-1741 -1780 -1997 -157 -69 -261 -92 -411 -92 l-130 -1 -72 38 c-212 114 -405
415 -598 932 -81 217 -140 413 -260 860 -138 518 -260 941 -312 1083 -93 259
-208 501 -331 696 l-69 110 74 85 c144 167 244 343 297 526 15 50 31 104 36
120 18 60 32 213 31 362 0 345 -62 643 -185 898 -76 156 -146 256 -259 368
l-98 98 64 162 c156 394 279 785 432 1377 181 699 319 1109 465 1376 44 80 74
118 155 199 160 161 292 216 520 218 128 2 194 -12 285 -58 236 -119 390 -462
390 -866 l0 -96 50 -47 49 -46 246 0 c271 0 279 2 330 62 l28 33 -6 200 c-9
294 -47 458 -154 665 -174 339 -475 537 -880 581 -349 37 -701 -74 -1013 -322
-553 -438 -1035 -1387 -1485 -2925 -42 -143 -80 -273 -86 -290 -9 -30 -12 -31
-85 -38 -79 -6 -223 -49 -308 -92 -105 -53 -195 -121 -307 -233 -127 -127
-211 -246 -299 -419 -28 -57 -53 -102 -55 -100 -1 2 -29 55 -61 118 -135 266
-297 458 -494 588 -47 31 -87 57 -89 58 -5 4 -48 297 -73 499 -18 149 -22 233
-22 485 0 326 11 463 59 725 122 661 415 1169 945 1643 52 46 99 91 103 99 10
16 -121 224 -156 248 -18 12 -30 8 -117 -35 -410 -206 -714 -271 -1270 -273
-240 -1 -293 1 -419 21 -192 30 -434 81 -731 152 -430 104 -690 149 -965 170
-155 11 -197 11 -362 -1z m4557 -4074 c0 -28 -149 -394 -212 -519 -160 -320
-392 -576 -692 -761 l-81 -51 -3 -115 c-2 -85 1 -119 10 -127 7 -5 58 -21 114
-35 359 -89 613 -296 788 -644 43 -86 98 -223 94 -233 -2 -4 -57 -48 -123 -97
-295 -219 -597 -524 -743 -750 -26 -40 -50 -72 -53 -73 -3 0 -16 18 -28 41
-13 22 -56 85 -97 140 l-74 99 11 178 c25 388 -15 886 -122 1521 -39 231 -96
525 -204 1046 -31 148 -54 275 -53 282 5 21 131 -70 218 -156 115 -114 175
-201 272 -394 45 -90 52 -98 75 -95 23 3 35 19 83 113 70 138 112 201 194 295
133 151 324 275 491 320 66 17 135 25 135 15z m647 -174 c260 -207 413 -581
414 -1011 1 -308 -90 -540 -300 -763 l-64 -67 -101 97 c-115 112 -174 158
-301 238 -180 114 -388 200 -634 264 l-144 38 74 55 c204 150 463 403 615 598
109 140 234 329 313 473 36 64 68 117 72 117 4 0 29 -17 56 -39z m-3212 -666
c21 -245 49 -489 86 -745 34 -231 77 -495 86 -524 5 -18 3 -18 -23 3 -16 12
-67 59 -113 104 -245 239 -354 520 -337 867 16 320 93 575 236 775 l35 49 7
-169 c4 -94 14 -255 23 -360z"/>
</g>
</svg>
